# xmcd
#
# Track frame offsets: 
#        150
#        13702
#        27537
#        45599
#        62288
#        86022
#        95315
#        108761
#        124074
#        139011
#        157449
#
# Disc length: 2358 seconds
#
# Revision: 1
# Processed by: cddbd v1.5.2PL0 Copyright (c) Steve Scherf et al.
# Submitted via: ExactAudioCopy v0.99pb5
#
DISCID=8a09340b
DTITLE=Calle Kristiansson - Calle Kristiansson
DYEAR=2009
DGENRE=Rock
TTITLE0=Hungry Heart
TTITLE1=Are You Gonna Go My Way
TTITLE2=Here I Go Again
TTITLE3=Bad Day
TTITLE4=With A Little Help From My Friends
TTITLE5=Its Not Unusual
TTITLE6=Jumping Jack Flash
TTITLE7=Highway To Hell
TTITLE8=To Be With You (LzY)
TTITLE9=Your Song
TTITLE10=Walking In Memphis (Bonus Track)
EXTD=
EXTT0=
EXTT1=
EXTT2=
EXTT3=
EXTT4=
EXTT5=
EXTT6=
EXTT7=
EXTT8=
EXTT9=
EXTT10=
PLAYORDER=
